<svg width="17" height="16" viewBox="0 0 17 16" fill="none" xmlns="http://www.w3.org/2000/svg">
<path d="M7.40527 0.111206C8.93219 0.136583 10.4045 0.704002 11.5547 1.71863C12.7816 2.80099 13.5504 4.31046 13.7041 5.93933L13.7256 6.245C13.7952 7.74054 13.3382 9.21461 12.4346 10.4139L15.7686 13.7469L15.8271 13.8114C15.8828 13.8791 15.9282 13.9548 15.9619 14.036L15.9912 14.119C16.0166 14.2028 16.0303 14.29 16.0303 14.3778C16.0303 14.4657 16.0166 14.5528 15.9912 14.6366L15.9619 14.7196C15.9171 14.8277 15.8513 14.9259 15.7686 15.0087C15.7064 15.0708 15.6358 15.1236 15.5586 15.1649L15.4795 15.202C15.3713 15.2469 15.2548 15.2694 15.1377 15.2694C15.0498 15.2694 14.9627 15.2567 14.8789 15.2313L14.7959 15.202C14.7149 15.1684 14.6398 15.1227 14.5723 15.0673L14.5068 15.0087L11.1738 11.6747C9.97449 12.5809 8.49905 13.0394 7.00195 12.9706L6.69629 12.9491C5.16806 12.8057 3.74501 12.121 2.68066 11.0243L2.47266 10.7997C1.38959 9.57185 0.815497 7.97713 0.867188 6.3407L0.883789 6.03406C1.00483 4.51056 1.66577 3.07568 2.75195 1.99109L2.97266 1.78015C4.10336 0.753421 5.56639 0.160603 7.09961 0.113159L7.40527 0.111206ZM7.30957 1.91882C6.15949 1.92351 5.05438 2.35335 4.20605 3.12195L4.04004 3.28015C3.17266 4.14755 2.68371 5.32302 2.67871 6.54968C2.67378 7.77628 3.15341 8.95557 4.01367 9.82996L4.17871 9.98914C4.57301 10.3522 5.0275 10.6448 5.52246 10.8534L5.73633 10.9374C6.24001 11.1209 6.77235 11.2164 7.30957 11.2186L7.53906 11.2137C8.0744 11.1895 8.60204 11.0725 9.09863 10.868C9.6662 10.6343 10.1822 10.2903 10.6162 9.85632C11.0503 9.42228 11.3942 8.90633 11.6279 8.33875L11.71 8.12488C11.8638 7.69178 11.9528 7.23831 11.9736 6.77917L11.9785 6.54968C11.9763 6.01248 11.8808 5.4801 11.6973 4.97644L11.6133 4.76257C11.4047 4.26759 11.1121 3.81313 10.749 3.41882L10.5898 3.25378C9.71544 2.3935 8.53621 1.91387 7.30957 1.91882Z" fill="white" stroke="white" stroke-width="0.2"/>
</svg>
